<svg xmlns="http://www.w3.org/2000/svg" xmlns:xlink="http://www.w3.org/1999/xlink" width="600" zoomAndPan="magnify" viewBox="0 0 450 299.999988" height="400" preserveAspectRatio="xMidYMid meet" version="1.0"><defs><clipPath id="7e1a5e4e2d"><path d="M 117.667969 49.707031 L 332.167969 49.707031 L 332.167969 249.957031 L 117.667969 249.957031 Z M 117.667969 49.707031 " clip-rule="nonzero"/></clipPath></defs><g clip-path="url(#7e1a5e4e2d)"><path fill="#ffffff" d="M -111.472656 -7.777344 L 356.527344 -7.777344 L 356.527344 304.222656 L -111.472656 304.222656 Z M -111.472656 -7.777344 " fill-opacity="1" fill-rule="nonzero"/></g><path fill="#248b04" d="M 282.847656 135.210938 C 281.664062 136.691406 280.484375 138.179688 279.324219 139.65625 L 279.324219 211.0625 C 279.324219 217.179688 274.347656 222.15625 268.230469 222.15625 L 158.023438 222.15625 C 151.898438 222.15625 146.929688 217.179688 146.929688 211.0625 L 146.929688 100.855469 C 146.929688 94.730469 151.898438 89.761719 158.023438 89.761719 L 262.070312 89.761719 C 266.226562 84.789062 270.078125 80.234375 274.132812 75.683594 L 277.59375 71.742188 L 279.589844 69.566406 C 276.046875 68.273438 272.214844 67.570312 268.230469 67.570312 L 158.023438 67.570312 C 139.664062 67.570312 124.738281 82.496094 124.738281 100.855469 L 124.738281 211.0625 C 124.738281 229.414062 139.664062 244.347656 158.023438 244.347656 L 268.230469 244.347656 C 286.582031 244.347656 301.515625 229.414062 301.515625 211.0625 L 301.515625 112.667969 C 295.738281 119.363281 289.671875 126.691406 282.847656 135.210938 Z M 282.847656 135.210938 " fill-opacity="1" fill-rule="nonzero"/><path fill="#248b04" d="M 326.5625 57.675781 C 323.359375 52.273438 316.382812 50.488281 310.980469 53.695312 C 307.957031 55.488281 305.144531 57.535156 302.414062 59.671875 C 301.03125 60.726562 299.761719 61.875 298.472656 63.015625 C 297.191406 64.164062 295.9375 65.339844 294.695312 66.527344 C 292.183594 68.882812 289.929688 71.449219 287.605469 73.960938 L 284.136719 77.746094 L 280.757812 81.585938 C 276.21875 86.683594 271.847656 91.898438 267.488281 97.117188 L 261.042969 105.007812 L 254.765625 113.011719 C 246.476562 123.734375 238.40625 134.59375 230.683594 145.683594 C 226.804688 151.214844 223.003906 156.800781 219.230469 162.40625 C 217.847656 164.5 216.476562 166.605469 215.101562 168.707031 C 212.148438 166.246094 209.484375 163.519531 207.085938 160.472656 C 202.203125 154.347656 198.394531 146.859375 195.226562 138.746094 L 195.15625 138.5625 C 193.039062 133.175781 187.078125 130.28125 181.480469 132.054688 C 175.636719 133.902344 172.398438 140.140625 174.25 145.984375 C 175.796875 150.863281 177.585938 155.761719 179.828125 160.597656 C 182.074219 165.425781 184.753906 170.203125 187.976562 174.726562 C 191.207031 179.238281 194.972656 183.46875 199.101562 187.21875 C 203.226562 190.980469 207.707031 194.230469 212.273438 197.035156 C 217.84375 200.445312 225.191406 198.925781 228.90625 193.472656 L 229.128906 193.140625 C 232.820312 187.714844 236.609375 182.332031 240.414062 176.964844 C 244.222656 171.597656 248.058594 166.253906 251.96875 160.964844 C 259.804688 150.394531 267.722656 139.90625 275.917969 129.667969 C 284.117188 119.429688 292.464844 109.359375 301.136719 99.644531 L 304.378906 95.992188 L 307.6875 92.421875 C 309.902344 90.046875 312.085938 87.636719 314.265625 85.253906 C 316.433594 82.859375 318.484375 80.328125 320.515625 77.796875 C 322.550781 75.273438 324.507812 72.660156 326.25 69.792969 L 326.507812 69.371094 C 328.609375 65.898438 328.777344 61.410156 326.5625 57.675781 Z M 326.5625 57.675781 " fill-opacity="1" fill-rule="nonzero"/></svg>