<svg xmlns="http://www.w3.org/2000/svg" xmlns:xlink="http://www.w3.org/1999/xlink" width="500" zoomAndPan="magnify" viewBox="0 0 375 374.999991" height="500" preserveAspectRatio="xMidYMid meet" version="1.0"><defs><g/><clipPath id="222c10aff8"><path d="M 8.246094 5 L 337.496094 5 L 337.496094 367 L 8.246094 367 Z M 8.246094 5 " clip-rule="nonzero"/></clipPath></defs><g clip-path="url(#222c10aff8)"><path fill="#21007d" d="M 109.761719 327.53125 L 109.761719 293.542969 L 140.9375 276.300781 L 171.757812 293.398438 L 171.757812 361.949219 Z M 77.289062 307.410156 L 77.289062 238.933594 L 139.289062 204.585938 L 139.289062 236.632812 L 107.101562 254.453125 L 106.886719 254.597656 L 106.742188 254.742188 L 106.601562 254.957031 L 106.453125 255.101562 L 106.3125 255.386719 L 106.3125 291.457031 Z M 11.769531 273.066406 L 11.769531 204.585938 L 73.695312 238.933594 L 73.695312 307.410156 Z M 74.699219 208.324219 L 74.988281 208.464844 L 75.132812 208.464844 C 75.273438 208.507812 75.417969 208.53125 75.5625 208.539062 C 75.707031 208.53125 75.855469 208.507812 75.996094 208.464844 L 76.136719 208.464844 L 76.425781 208.324219 L 113.066406 187.988281 L 137.417969 201.496094 L 75.5625 235.769531 L 13.707031 201.496094 L 38.0625 187.988281 Z M 11.769531 169.378906 L 11.769531 100.824219 L 73.695312 135.171875 L 73.695312 164.132812 L 37.992188 183.890625 Z M 106.167969 80.417969 L 106.167969 114.984375 L 75.492188 132.082031 L 13.636719 97.808594 L 75.492188 63.53125 Z M 109.761719 46.289062 L 171.757812 80.636719 L 171.757812 149.183594 L 142.878906 133.234375 L 142.878906 97.160156 L 142.734375 96.871094 L 142.589844 96.730469 L 142.449219 96.511719 L 142.304688 96.371094 L 142.089844 96.226562 L 109.902344 78.40625 L 109.902344 46.359375 Z M 235.410156 43.269531 L 173.554688 77.542969 L 111.699219 43.269531 L 173.554688 9.066406 Z M 203.730469 96.226562 L 203.511719 96.371094 L 203.371094 96.511719 L 203.226562 96.730469 L 203.011719 96.871094 L 202.867188 97.160156 L 202.867188 134.023438 L 175.421875 149.257812 L 175.421875 80.707031 L 237.277344 46.359375 L 237.277344 77.617188 Z M 270.183594 63.53125 L 332.035156 97.808594 L 270.183594 132.082031 L 240.945312 115.914062 L 240.945312 79.699219 Z M 333.980469 169.378906 L 303.015625 186.550781 L 271.980469 169.378906 L 271.980469 135.171875 L 333.90625 100.824219 L 333.90625 169.378906 Z M 332.035156 206.742188 L 270.183594 241.015625 L 208.324219 206.742188 L 237.421875 190.644531 L 269.320312 208.324219 L 269.609375 208.464844 L 269.75 208.464844 C 269.890625 208.507812 270.035156 208.53125 270.183594 208.539062 C 270.328125 208.53125 270.472656 208.507812 270.613281 208.464844 L 270.757812 208.464844 L 271.042969 208.324219 L 302.941406 190.644531 Z M 271.980469 312.65625 L 271.980469 244.175781 L 333.90625 209.832031 L 333.90625 278.382812 Z M 240.871094 256.035156 L 240.871094 255.386719 L 240.726562 255.101562 L 240.585938 254.957031 L 240.4375 254.742188 L 240.296875 254.597656 L 240.078125 254.453125 L 206.460938 235.84375 L 206.460938 209.832031 L 268.386719 244.175781 L 268.386719 312.730469 L 240.945312 297.496094 L 240.945312 256.035156 Z M 137.277344 274.214844 L 109.761719 289.445312 L 109.761719 259.054688 Z M 237.351562 258.980469 L 237.351562 295.410156 L 206.386719 278.308594 L 206.386719 276.152344 Z M 235.410156 255.964844 L 206.386719 272.058594 L 206.386719 239.9375 Z M 173.554688 221.6875 L 202.792969 237.855469 L 202.792969 273.996094 L 173.554688 290.238281 L 142.878906 273.277344 L 142.878906 238.71875 Z M 271.980469 173.472656 L 299.277344 188.5625 L 271.980469 203.652344 Z M 268.386719 203.726562 L 241.085938 188.636719 L 268.386719 173.546875 L 268.386719 203.792969 Z M 238.214844 118.503906 L 268.386719 135.171875 L 268.386719 169.378906 L 237.421875 186.550781 L 206.460938 169.378906 L 206.460938 136.105469 Z M 234.476562 116.421875 L 206.3125 132.011719 L 206.3125 100.824219 Z M 237.277344 81.714844 L 237.277344 113.832031 L 208.253906 97.738281 Z M 139.289062 100.824219 L 139.289062 131.21875 L 111.84375 115.988281 Z M 137.347656 97.808594 L 109.761719 113.113281 L 109.761719 82.5 Z M 77.289062 164.132812 L 77.289062 135.171875 L 108.105469 118.070312 L 139.289062 135.316406 L 139.289062 169.304688 L 113.066406 183.820312 Z M 73.695312 203.726562 L 41.726562 185.972656 L 73.695312 168.226562 Z M 77.289062 168.226562 L 109.328125 185.972656 L 77.289062 203.726562 Z M 142.878906 201.570312 L 142.878906 200.921875 L 142.734375 200.632812 L 142.589844 200.492188 L 142.449219 200.273438 L 142.304688 200.132812 L 142.089844 199.984375 L 116.726562 185.972656 L 141.945312 172.035156 C 142.523438 171.71875 142.878906 171.113281 142.878906 170.453125 L 142.878906 137.402344 L 172.695312 153.929688 L 172.980469 154.070312 L 173.125 154.070312 C 173.265625 154.113281 173.410156 154.136719 173.554688 154.144531 C 173.703125 154.136719 173.84375 154.113281 173.984375 154.070312 L 174.132812 154.070312 L 174.417969 153.929688 L 202.792969 138.191406 L 202.792969 170.523438 C 202.792969 171.183594 203.152344 171.789062 203.730469 172.109375 L 233.6875 188.707031 L 203.730469 205.160156 L 203.511719 205.304688 L 203.371094 205.449219 L 203.226562 205.664062 L 203.082031 205.808594 L 202.9375 206.09375 L 202.9375 233.757812 L 174.558594 218.023438 C 174.023438 217.726562 173.375 217.726562 172.835938 218.023438 L 143.023438 234.550781 L 143.023438 201.496094 Z M 139.289062 240.730469 L 139.289062 271.339844 L 111.699219 256.035156 Z M 237.277344 327.53125 L 175.277344 361.878906 L 175.277344 293.398438 L 202.722656 278.164062 L 202.722656 279.386719 C 202.722656 280.046875 203.078125 280.652344 203.65625 280.96875 L 237.277344 299.578125 L 237.277344 327.601562 Z M 173.125 366.691406 C 173.265625 366.734375 173.410156 366.757812 173.554688 366.765625 C 173.703125 366.757812 173.84375 366.734375 173.984375 366.691406 L 174.132812 366.691406 L 174.417969 366.546875 L 240.007812 330.191406 C 240.585938 329.875 240.945312 329.265625 240.945312 328.609375 L 240.945312 301.589844 L 269.320312 317.328125 L 269.609375 317.46875 L 269.75 317.46875 C 269.890625 317.511719 270.035156 317.539062 270.183594 317.542969 C 270.328125 317.539062 270.472656 317.511719 270.613281 317.46875 L 270.757812 317.46875 L 271.042969 317.328125 L 336.5625 280.96875 C 337.140625 280.652344 337.5 280.046875 337.496094 279.386719 L 337.496094 206.09375 L 337.355469 205.808594 L 337.210938 205.664062 L 337.066406 205.449219 L 336.921875 205.304688 L 336.707031 205.160156 L 306.679688 188.636719 L 336.5625 172.035156 C 337.140625 171.71875 337.5 171.113281 337.496094 170.453125 L 337.496094 97.160156 L 337.355469 96.871094 L 337.210938 96.730469 L 337.066406 96.511719 L 336.921875 96.371094 L 336.707031 96.226562 L 271.042969 59.867188 C 270.507812 59.574219 269.855469 59.574219 269.320312 59.867188 L 240.945312 75.605469 L 240.945312 42.695312 L 240.796875 42.40625 L 240.65625 42.261719 L 240.511719 42.046875 L 240.367188 41.902344 L 240.152344 41.761719 L 174.417969 5.402344 C 173.882812 5.109375 173.230469 5.109375 172.695312 5.402344 L 107.101562 41.761719 L 106.886719 41.902344 L 106.742188 42.046875 L 106.601562 42.261719 L 106.453125 42.40625 L 106.3125 42.695312 L 106.3125 76.394531 L 76.496094 59.867188 C 75.960938 59.574219 75.308594 59.574219 74.773438 59.867188 L 9.183594 96.226562 L 8.964844 96.371094 L 8.824219 96.511719 L 8.679688 96.730469 L 8.535156 96.871094 L 8.390625 97.160156 L 8.390625 170.453125 C 8.390625 171.113281 8.746094 171.71875 9.324219 172.035156 L 34.253906 185.972656 L 9.039062 199.914062 L 8.824219 200.058594 L 8.679688 200.203125 L 8.535156 200.417969 L 8.390625 200.5625 L 8.246094 200.851562 L 8.246094 274.144531 C 8.246094 274.800781 8.605469 275.40625 9.183594 275.722656 L 74.773438 312.082031 L 75.058594 312.226562 L 75.132812 312.226562 C 75.273438 312.265625 75.417969 312.292969 75.5625 312.296875 C 75.707031 312.292969 75.855469 312.265625 75.996094 312.226562 L 76.136719 312.226562 L 76.425781 312.082031 L 106.242188 295.554688 L 106.242188 328.609375 C 106.238281 329.265625 106.597656 329.875 107.171875 330.191406 L 172.765625 366.546875 L 173.054688 366.691406 L 173.195312 366.691406 L 173.125 366.691406 " fill-opacity="1" fill-rule="nonzero"/></g><g fill="#21007d" fill-opacity="1"><g transform="translate(257.718458, 44.498402)"><g><path d="M 18.292969 0.730469 C 26.1875 0.730469 32.390625 -4.5625 33.851562 -12.453125 L 26.871094 -12.453125 C 25.730469 -8.441406 22.492188 -5.886719 18.292969 -5.886719 C 12.867188 -5.886719 8.804688 -10.171875 8.804688 -15.921875 C 8.804688 -21.671875 12.867188 -26.003906 18.292969 -26.003906 C 22.308594 -26.003906 25.503906 -23.632812 26.824219 -19.890625 L 33.714844 -19.890625 C 32.253906 -27.464844 26.050781 -32.621094 18.292969 -32.621094 C 8.894531 -32.621094 1.777344 -25.410156 1.777344 -15.921875 C 1.777344 -6.476562 8.894531 0.730469 18.292969 0.730469 Z M 18.292969 0.730469 "/></g></g></g><g fill="#21007d" fill-opacity="1"><g transform="translate(292.892364, 44.498402)"><g><path d="M 42.75 0 L 37.820312 -31.9375 L 30.886719 -31.9375 L 22.21875 -12.316406 L 13.550781 -31.9375 L 6.660156 -31.9375 L 1.640625 0 L 8.667969 0 L 11.816406 -20.804688 L 21.351562 -0.046875 L 23.039062 -0.046875 L 32.574219 -20.804688 L 35.722656 0 Z M 42.75 0 "/></g></g></g><g fill="#21007d" fill-opacity="1"><g transform="translate(337.372994, 44.498402)"><g><path d="M 15.921875 -31.9375 L 3.648438 -31.9375 L 3.648438 0 L 10.539062 0 L 10.539062 -9.945312 L 15.921875 -9.945312 C 22.355469 -9.945312 27.191406 -14.644531 27.191406 -20.941406 C 27.191406 -27.238281 22.308594 -31.9375 15.921875 -31.9375 Z M 15.601562 -16.332031 L 10.539062 -16.332031 L 10.539062 -25.503906 L 15.601562 -25.503906 C 18.339844 -25.503906 20.210938 -23.585938 20.210938 -20.941406 C 20.210938 -18.292969 18.339844 -16.332031 15.601562 -16.332031 Z M 15.601562 -16.332031 "/></g></g></g></svg>