<svg xmlns="http://www.w3.org/2000/svg" xmlns:xlink="http://www.w3.org/1999/xlink" width="500" zoomAndPan="magnify" viewBox="0 0 375 374.999991" height="500" preserveAspectRatio="xMidYMid meet" version="1.0"><defs><g/><clipPath id="2c8c387e44"><path d="M 5.992188 10.183594 L 337.492188 10.183594 L 337.492188 374.683594 L 5.992188 374.683594 Z M 5.992188 10.183594 " clip-rule="nonzero"/></clipPath></defs><g clip-path="url(#2c8c387e44)"><path fill="#ffffff" d="M 108.199219 334.90625 L 108.199219 300.710938 L 139.589844 283.359375 L 170.621094 300.5625 L 170.621094 369.542969 Z M 75.503906 314.664062 L 75.503906 245.761719 L 137.929688 211.203125 L 137.929688 243.445312 L 105.523438 261.378906 L 105.304688 261.519531 L 105.160156 261.667969 L 105.019531 261.882812 L 104.871094 262.03125 L 104.726562 262.316406 L 104.726562 298.613281 Z M 9.539062 280.105469 L 9.539062 211.203125 L 71.890625 245.761719 L 71.890625 314.664062 Z M 72.902344 214.960938 L 73.191406 215.105469 L 73.335938 215.105469 C 73.476562 215.148438 73.621094 215.167969 73.769531 215.179688 C 73.914062 215.167969 74.0625 215.148438 74.203125 215.105469 L 74.347656 215.105469 L 74.636719 214.960938 L 111.527344 194.5 L 136.046875 208.09375 L 73.769531 242.578125 L 11.492188 208.09375 L 36.011719 194.5 Z M 9.539062 175.773438 L 9.539062 106.796875 L 71.890625 141.359375 L 71.890625 170.496094 L 35.941406 190.378906 Z M 104.582031 86.265625 L 104.582031 121.042969 L 73.695312 138.246094 L 11.417969 103.761719 L 73.695312 69.273438 Z M 108.199219 51.921875 L 170.621094 86.480469 L 170.621094 155.457031 L 141.546875 139.40625 L 141.546875 103.113281 L 141.398438 102.820312 L 141.253906 102.675781 L 141.109375 102.457031 L 140.964844 102.316406 L 140.75 102.171875 L 108.34375 84.238281 L 108.34375 51.992188 Z M 234.707031 48.886719 L 172.429688 83.371094 L 110.152344 48.886719 L 172.429688 14.46875 Z M 202.8125 102.171875 L 202.59375 102.316406 L 202.449219 102.457031 L 202.304688 102.675781 L 202.085938 102.820312 L 201.941406 103.113281 L 201.941406 140.203125 L 174.308594 155.53125 L 174.308594 86.550781 L 236.589844 51.992188 L 236.589844 83.445312 Z M 269.71875 69.273438 L 331.996094 103.761719 L 269.71875 138.246094 L 240.28125 121.980469 L 240.28125 85.542969 Z M 333.949219 175.773438 L 302.773438 193.054688 L 271.527344 175.773438 L 271.527344 141.359375 L 333.875 106.796875 L 333.875 175.773438 Z M 331.996094 213.371094 L 269.71875 247.859375 L 207.4375 213.371094 L 236.734375 197.171875 L 268.851562 214.960938 L 269.140625 215.105469 L 269.285156 215.105469 C 269.425781 215.148438 269.570312 215.167969 269.71875 215.179688 C 269.867188 215.167969 270.007812 215.148438 270.152344 215.105469 L 270.296875 215.105469 L 270.585938 214.960938 L 302.699219 197.171875 Z M 271.527344 319.941406 L 271.527344 251.039062 L 333.875 216.480469 L 333.875 285.453125 Z M 240.207031 262.96875 L 240.207031 262.316406 L 240.0625 262.03125 L 239.917969 261.882812 L 239.769531 261.667969 L 239.625 261.519531 L 239.410156 261.378906 L 205.558594 242.652344 L 205.558594 216.480469 L 267.910156 251.039062 L 267.910156 320.015625 L 240.28125 304.6875 L 240.28125 262.96875 Z M 135.902344 281.261719 L 108.199219 296.585938 L 108.199219 266.007812 Z M 236.664062 265.933594 L 236.664062 302.589844 L 205.488281 285.378906 L 205.488281 283.210938 Z M 234.707031 262.898438 L 205.488281 279.089844 L 205.488281 246.773438 Z M 172.429688 228.410156 L 201.871094 244.675781 L 201.871094 281.042969 L 172.429688 297.382812 L 141.546875 280.320312 L 141.546875 245.542969 Z M 271.527344 179.894531 L 299.011719 195.078125 L 271.527344 210.261719 Z M 267.910156 210.335938 L 240.421875 195.152344 L 267.910156 179.96875 L 267.910156 210.40625 Z M 237.53125 124.585938 L 267.910156 141.359375 L 267.910156 175.773438 L 236.734375 193.054688 L 205.558594 175.773438 L 205.558594 142.296875 Z M 233.769531 122.488281 L 205.414062 138.175781 L 205.414062 106.796875 Z M 236.589844 87.566406 L 236.589844 119.882812 L 207.367188 103.691406 Z M 137.929688 106.796875 L 137.929688 137.382812 L 110.296875 122.054688 Z M 135.972656 103.761719 L 108.199219 119.160156 L 108.199219 88.359375 Z M 75.503906 170.496094 L 75.503906 141.359375 L 106.535156 124.148438 L 137.929688 141.5 L 137.929688 175.699219 L 111.527344 190.304688 Z M 71.890625 210.335938 L 39.699219 192.472656 L 71.890625 174.617188 Z M 75.503906 174.617188 L 107.765625 192.472656 L 75.503906 210.335938 Z M 141.546875 208.164062 L 141.546875 207.511719 L 141.398438 207.226562 L 141.253906 207.082031 L 141.109375 206.863281 L 140.964844 206.71875 L 140.75 206.574219 L 115.214844 192.472656 L 140.605469 178.449219 C 141.1875 178.128906 141.546875 177.519531 141.546875 176.859375 L 141.546875 143.601562 L 171.5625 160.230469 L 171.851562 160.375 L 171.996094 160.375 C 172.136719 160.414062 172.285156 160.4375 172.429688 160.445312 C 172.578125 160.4375 172.722656 160.414062 172.863281 160.375 L 173.011719 160.375 L 173.296875 160.230469 L 201.871094 144.394531 L 201.871094 176.929688 C 201.867188 177.59375 202.230469 178.203125 202.8125 178.523438 L 232.972656 195.222656 L 202.8125 211.78125 L 202.59375 211.925781 L 202.449219 212.070312 L 202.304688 212.285156 L 202.15625 212.429688 L 202.015625 212.71875 L 202.015625 240.554688 L 173.441406 224.722656 C 172.902344 224.425781 172.246094 224.425781 171.707031 224.722656 L 141.691406 241.351562 L 141.691406 208.09375 Z M 137.929688 247.570312 L 137.929688 278.367188 L 110.152344 262.96875 Z M 236.589844 334.90625 L 174.164062 369.46875 L 174.164062 300.5625 L 201.796875 285.238281 L 201.796875 286.464844 C 201.796875 287.128906 202.15625 287.738281 202.738281 288.058594 L 236.589844 306.78125 L 236.589844 334.980469 Z M 171.996094 374.3125 C 172.136719 374.355469 172.285156 374.378906 172.429688 374.382812 C 172.578125 374.378906 172.722656 374.355469 172.863281 374.3125 L 173.011719 374.3125 L 173.296875 374.167969 L 239.339844 337.585938 C 239.921875 337.265625 240.28125 336.65625 240.28125 335.992188 L 240.28125 308.808594 L 268.851562 324.640625 L 269.140625 324.785156 L 269.285156 324.785156 C 269.425781 324.828125 269.570312 324.851562 269.71875 324.859375 C 269.867188 324.851562 270.007812 324.828125 270.152344 324.785156 L 270.296875 324.785156 L 270.585938 324.640625 L 336.550781 288.058594 C 337.132812 287.738281 337.496094 287.128906 337.492188 286.464844 L 337.492188 212.71875 L 337.347656 212.429688 L 337.207031 212.285156 L 337.058594 212.070312 L 336.914062 211.925781 L 336.695312 211.78125 L 306.464844 195.152344 L 336.550781 178.449219 C 337.132812 178.128906 337.496094 177.519531 337.492188 176.859375 L 337.492188 103.113281 L 337.347656 102.820312 L 337.207031 102.675781 L 337.058594 102.457031 L 336.914062 102.316406 L 336.695312 102.171875 L 270.585938 65.585938 C 270.046875 65.292969 269.390625 65.292969 268.851562 65.585938 L 240.28125 81.421875 L 240.28125 48.304688 L 240.132812 48.015625 L 239.988281 47.871094 L 239.84375 47.652344 L 239.699219 47.511719 L 239.484375 47.367188 L 173.296875 10.785156 C 172.757812 10.488281 172.101562 10.488281 171.5625 10.785156 L 105.523438 47.367188 L 105.304688 47.511719 L 105.160156 47.652344 L 105.019531 47.871094 L 104.871094 48.015625 L 104.726562 48.304688 L 104.726562 82.214844 L 74.707031 65.585938 C 74.167969 65.292969 73.511719 65.292969 72.972656 65.585938 L 6.933594 102.171875 L 6.714844 102.316406 L 6.570312 102.457031 L 6.429688 102.675781 L 6.285156 102.820312 L 6.136719 103.113281 L 6.136719 176.859375 C 6.136719 177.519531 6.496094 178.128906 7.078125 178.449219 L 32.175781 192.472656 L 6.789062 206.503906 L 6.570312 206.644531 L 6.429688 206.789062 L 6.285156 207.007812 L 6.136719 207.152344 L 5.992188 207.441406 L 5.992188 281.191406 C 5.988281 281.851562 6.351562 282.460938 6.933594 282.78125 L 72.972656 319.363281 L 73.261719 319.507812 L 73.335938 319.507812 C 73.476562 319.546875 73.621094 319.574219 73.769531 319.578125 C 73.914062 319.574219 74.0625 319.546875 74.203125 319.507812 L 74.347656 319.507812 L 74.636719 319.363281 L 104.65625 302.734375 L 104.65625 335.992188 C 104.652344 336.65625 105.015625 337.265625 105.59375 337.585938 L 171.632812 374.167969 L 171.925781 374.3125 L 172.070312 374.3125 L 171.996094 374.3125 " fill-opacity="1" fill-rule="nonzero"/></g><g fill="#ffffff" fill-opacity="1"><g transform="translate(249.170437, 49.874997)"><g><path d="M 18.292969 0.730469 C 26.1875 0.730469 32.390625 -4.5625 33.851562 -12.453125 L 26.871094 -12.453125 C 25.730469 -8.441406 22.492188 -5.886719 18.292969 -5.886719 C 12.867188 -5.886719 8.804688 -10.171875 8.804688 -15.921875 C 8.804688 -21.671875 12.867188 -26.003906 18.292969 -26.003906 C 22.308594 -26.003906 25.503906 -23.632812 26.824219 -19.890625 L 33.714844 -19.890625 C 32.253906 -27.464844 26.050781 -32.621094 18.292969 -32.621094 C 8.894531 -32.621094 1.777344 -25.410156 1.777344 -15.921875 C 1.777344 -6.476562 8.894531 0.730469 18.292969 0.730469 Z M 18.292969 0.730469 "/></g></g></g><g fill="#ffffff" fill-opacity="1"><g transform="translate(284.344342, 49.874997)"><g><path d="M 42.75 0 L 37.820312 -31.9375 L 30.886719 -31.9375 L 22.21875 -12.316406 L 13.550781 -31.9375 L 6.660156 -31.9375 L 1.640625 0 L 8.667969 0 L 11.816406 -20.804688 L 21.351562 -0.046875 L 23.039062 -0.046875 L 32.574219 -20.804688 L 35.722656 0 Z M 42.75 0 "/></g></g></g><g fill="#ffffff" fill-opacity="1"><g transform="translate(328.824972, 49.874997)"><g><path d="M 15.921875 -31.9375 L 3.648438 -31.9375 L 3.648438 0 L 10.539062 0 L 10.539062 -9.945312 L 15.921875 -9.945312 C 22.355469 -9.945312 27.191406 -14.644531 27.191406 -20.941406 C 27.191406 -27.238281 22.308594 -31.9375 15.921875 -31.9375 Z M 15.601562 -16.332031 L 10.539062 -16.332031 L 10.539062 -25.503906 L 15.601562 -25.503906 C 18.339844 -25.503906 20.210938 -23.585938 20.210938 -20.941406 C 20.210938 -18.292969 18.339844 -16.332031 15.601562 -16.332031 Z M 15.601562 -16.332031 "/></g></g></g></svg>